<?xml version="1.0" encoding="utf-8"?>
<!-- Generator: Adobe Illustrator 27.0.0, SVG Export Plug-In . SVG Version: 6.00 Build 0)  -->
<svg version="1.1" id="Laag_1" xmlns="http://www.w3.org/2000/svg" xmlns:xlink="http://www.w3.org/1999/xlink" x="0px" y="0px"
	 viewBox="0 0 496.2 70.2" style="enable-background:new 0 0 496.2 70.2;" xml:space="preserve">
<style type="text/css">
	.st0{fill:#231F20;}
</style>
<g>
	<g>
		<path class="st0" d="M3.9,3.7h8.6l6.2,25.8H19l6.8-25.8h7.4L40,29.6h0.2l6.2-25.9H55L44.4,40.9h-7.7l-7.1-24.3h-0.3l-7.1,24.3
			h-7.7L3.9,3.7z"/>
		<path class="st0" d="M56.6,40.9L69.4,3.7h10.1l12.8,37.2h-8.4l-2.7-8.5H67.8L65,40.9H56.6z M79.3,26.3l-4.6-14.1h-0.3l-4.6,14.1
			H79.3z"/>
		<path class="st0" d="M114,10.2c-5.7,0-9.6,4.4-9.6,12.1c0,7.8,3.7,12.2,9.6,12.2c5.2,0,8.4-2.9,8.5-7.5h-8v-5.9h15.6v4.7
			c0,9.8-6.7,15.7-16.1,15.7c-10.5,0-17.6-7.3-17.6-19.1c0-12.1,7.6-19.1,17.4-19.1c8.4,0,14.9,5.2,15.9,12.5h-8
			C120.8,12.3,118.1,10.2,114,10.2z"/>
		<path class="st0" d="M169.8,40.9H163l-16.2-23.4h-0.3v23.4h-7.9V3.7h6.9l16.1,23.4h0.3V3.7h7.8L169.8,40.9L169.8,40.9z"/>
		<path class="st0" d="M179.3,3.7h25.1v6.5h-17.2v8.9h15.9v6.5h-15.9v8.9h17.3V41h-25.1L179.3,3.7L179.3,3.7z"/>
		<path class="st0" d="M213.3,3.7H228c8.4,0,13.3,4.8,13.3,12.2c0,5.1-2.3,8.8-6.6,10.6l7.9,14.5h-8.7l-7-13.2h-5.7V41h-7.9V3.7z
			 M226.5,21.4c4.5,0,6.7-1.9,6.7-5.5c0-3.7-2.2-5.7-6.7-5.7h-5.3v11.2H226.5z"/>
	</g>
	<g>
		<path class="st0" d="M247.9,29.6l16.3-25.9h5.4v25.6h5.1v4h-5.1v7.6h-4.3v-7.6h-17.5v-3.7H247.9z M265.4,9.5h-0.3L252.7,29v0.3
			h12.6L265.4,9.5L265.4,9.5z"/>
		<path class="st0" d="M283.3,40.9V3.7h12c10.8,0,17.2,7,17.2,18.5c0,11.6-6.4,18.7-17.7,18.7H283.3z M294.5,36.9
			c9.2,0,13.7-5.6,13.7-14.7c0-9-4.4-14.5-13.1-14.5h-7.2v29.2H294.5z"/>
		<path class="st0" d="M317.2,40.9l13.7-37.2h4.7l13.7,37.2h-4.7l-3.7-10.5h-15l-3.7,10.5H317.2z M339.3,26.4l-6-16.8H333l-6,16.8
			H339.3z"/>
		<path class="st0" d="M355.3,40.9L369,3.7h4.6l13.7,37.2h-4.7l-3.7-10.5h-15l-3.7,10.5H355.3z M377.4,26.4l-6-16.8h-0.3l-6,16.8
			H377.4z"/>
		<path class="st0" d="M408.2,7.4c-6.6,0-11.9,5.2-11.9,14.9s5.3,14.9,12.2,14.9c6.3,0,10.7-4.2,10.8-10.9h-9.8v-4h14.2v4
			c0,9.2-6.3,15.1-15.2,15.1c-9.9,0-16.6-7.3-16.6-19.1s6.7-19.1,16.3-19.1c7.8,0,13.9,4.9,15.3,12.1h-4.7
			C417.2,10.5,413.6,7.4,408.2,7.4z"/>
		<path class="st0" d="M444.9,7.2c-4.9,0-8.2,2.6-8.2,6.2c0,4,4.4,5.4,7.2,6.2l3.8,1c3.9,1,10.5,3.3,10.5,10.2
			c0,6-4.9,10.8-13.4,10.8c-8,0-12.9-4.1-13.4-10.2h4.7c0.4,4.2,4.3,6.2,8.7,6.2c5.2,0,9.1-2.7,9.1-6.8c0-3.7-3.5-5.1-7.4-6.2
			l-4.6-1.3c-5.8-1.7-9.4-4.6-9.4-9.7c0-6.2,5.6-10.4,12.7-10.4c7.2,0,12.4,4.2,12.6,9.8h-4.6C452.8,9.4,449.4,7.2,444.9,7.2z"/>
		<path class="st0" d="M467.6,3.7H490v4h-17.9v12.6h16.8v4h-16.8v12.6h18.2v4h-22.7L467.6,3.7L467.6,3.7z"/>
	</g>
	<g>
		<path class="st0" d="M249.3,52.6h2.1v6.2h7.1v-6.2h2.1v14.2h-2.1v-6.2h-7.1v6.2h-2.1V52.6z"/>
		<path class="st0" d="M264.4,52.6h8.9v1.8h-6.8v4.3h6.3v1.8h-6.3v4.3h6.8v1.8h-9v-14H264.4z"/>
		<path class="st0" d="M279,66.8h-2.1V52.6h2.1V66.8z"/>
		<path class="st0" d="M282.7,52.6h2.1V65h6.4v1.8h-8.6V52.6H282.7z"/>
		<path class="st0" d="M296.5,66.8h-2.1V52.6h2.1V66.8z"/>
		<path class="st0" d="M306.1,54.4c-2.4,0-4.2,1.9-4.2,5.3c0,3.5,1.8,5.3,4.3,5.3c2.3,0,3.8-1.4,3.8-3.7h-3.5v-1.8h5.6v1.6
			c0,3.6-2.5,5.8-5.9,5.8c-3.8,0-6.5-2.8-6.5-7.3s2.7-7.3,6.4-7.3c3.1,0,5.4,1.9,5.9,4.7h-2.2C309.3,55.4,308,54.4,306.1,54.4z"/>
		<path class="st0" d="M327.1,52.6h2.1V65h6.4v1.8H327V52.6H327.1z"/>
		<path class="st0" d="M337.6,66.8l5.1-14.2h2.5l5.1,14.2H348l-1.3-3.8h-5.5l-1.3,3.8H337.6z M346.1,61.3l-2.1-6.1h-0.1l-2.1,6.1
			H346.1z"/>
		<path class="st0" d="M364.4,66.8h-2l-7.2-10.4h-0.1v10.4H353V52.6h2l7.2,10.4h0.1V52.6h2.1V66.8z"/>
		<path class="st0" d="M368.2,66.8V52.6h4.7c4.2,0,6.7,2.7,6.7,7.1s-2.5,7.1-6.8,7.1H368.2z M372.7,65c3.2,0,4.8-1.9,4.8-5.2
			c0-3.3-1.6-5.2-4.7-5.2h-2.5v10.5L372.7,65L372.7,65z"/>
		<path class="st0" d="M387.7,54.3c-1.7,0-2.9,0.9-2.9,2.1c0,1.4,1.5,1.9,2.6,2.2l1.4,0.4c1.8,0.4,4.1,1.4,4.1,4
			c0,2.4-1.9,4.2-5.3,4.2c-3.2,0-5.2-1.6-5.3-4.2h2.1c0.1,1.5,1.5,2.3,3.1,2.3c1.8,0,3.1-0.9,3.1-2.3c0-1.3-1.2-1.8-2.7-2.2
			l-1.7-0.5c-2.3-0.6-3.7-1.8-3.7-3.8c0-2.4,2.2-4.1,5-4.1c2.9,0,4.9,1.6,5,3.9h-2.1C390.5,55.1,389.3,54.3,387.7,54.3z"/>
		<path class="st0" d="M395.4,52.6h11v1.8H402v12.4h-2.1V54.4h-4.4v-1.8H395.4z"/>
		<path class="st0" d="M411.5,66.8h-2.1V52.6h2.1V66.8z"/>
		<path class="st0" d="M424.9,57.3c-0.4-1.8-1.9-2.9-3.7-2.9c-2.4,0-4.3,1.9-4.3,5.3c0,3.5,1.8,5.3,4.3,5.3c1.8,0,3.3-1,3.7-2.8h2.2
			c-0.5,2.8-2.7,4.8-5.9,4.8c-3.7,0-6.4-2.8-6.4-7.3s2.7-7.3,6.4-7.3c3,0,5.4,1.8,5.9,4.8h-2.2V57.3z"/>
		<path class="st0" d="M430.3,52.6h2.1v6.2h7.1v-6.2h2.1v14.2h-2.1v-6.2h-7.1v6.2h-2.1V52.6z"/>
		<path class="st0" d="M444.7,52.6h11v1.8h-4.5v12.4h-2.1V54.4h-4.4V52.6z"/>
		<path class="st0" d="M460.9,66.8h-2.1V52.6h2.1V66.8z"/>
		<path class="st0" d="M476.1,66.8h-2l-7.2-10.4h-0.1v10.4h-2.1V52.6h2l7.2,10.4h0.1V52.6h2.1V66.8z"/>
		<path class="st0" d="M485.7,54.4c-2.4,0-4.2,1.9-4.2,5.3c0,3.5,1.8,5.3,4.3,5.3c2.3,0,3.8-1.4,3.8-3.7h-3.5v-1.8h5.6v1.6
			c0,3.6-2.5,5.8-5.9,5.8c-3.8,0-6.5-2.8-6.5-7.3s2.7-7.3,6.4-7.3c3.1,0,5.4,1.9,5.9,4.7h-2.2C488.9,55.4,487.6,54.4,485.7,54.4z"/>
	</g>
</g>
</svg>
